<svg width="72" height="72" id="Capa_1" data-name="Capa 1" xmlns="http://www.w3.org/2000/svg" viewBox="0 0 48.64 47.97"><defs><style>.cls-1{fill:#222d5b;}</style></defs><path class="cls-1" d="M24.31,47.42A23.44,23.44,0,1,1,47.75,24,23.46,23.46,0,0,1,24.31,47.42Zm0-45.89A22.46,22.46,0,1,0,46.77,24,22.49,22.49,0,0,0,24.32,1.53Z"/><path class="cls-1" d="M38.53,32.85,35,26.65V15.17a1.4,1.4,0,0,0-1.4-1.4H15a1.4,1.4,0,0,0-1.4,1.4V26.65l-3.51,6.2c-.38.67-.06,1.21.71,1.21h27C38.6,34.07,38.91,33.52,38.53,32.85ZM15,15.73a.56.56,0,0,1,.56-.56h17.5a.56.56,0,0,1,.56.56V26.09a.57.57,0,0,1-.56.56H15.57a.56.56,0,0,1-.56-.56ZM36.26,32.67H28.51l-.77-1.6a1,1,0,0,0-.8-.5h-5a1,1,0,0,0-.8.5l-.77,1.6h-8c-.31,0-.44-.22-.28-.49l2.06-3.65a1.05,1.05,0,0,1,.84-.48H33.65a1,1,0,0,1,.83.49l2.07,3.64C36.7,32.45,36.57,32.67,36.26,32.67Z"/></svg>