<svg id="Capa_1" data-name="Capa 1" xmlns="http://www.w3.org/2000/svg" viewBox="0 0 48.64 47.97"><defs><style>.cls-1{fill:#222d5b;}</style></defs><path class="cls-1" d="M24.37,47.42A23.44,23.44,0,1,1,47.87,24,23.5,23.5,0,0,1,24.37,47.42Zm0-45.89A22.46,22.46,0,1,0,46.88,24,22.51,22.51,0,0,0,24.38,1.53Z"/><path class="cls-1" d="M23.12,23.27a.59.59,0,0,1-.22-.05L12.31,17.91a.51.51,0,0,1-.25-.29.46.46,0,0,1,0-.38,12.66,12.66,0,0,1,11-6.59.59.59,0,0,1,.35.14.51.51,0,0,1,.15.35V22.78a.48.48,0,0,1-.49.49Zm-9.91-6L22.63,22V11.64A11.71,11.71,0,0,0,13.21,17.27Z"/><path class="cls-1" d="M35.59,29.56a.5.5,0,0,1-.21,0L24.69,24.2a.49.49,0,0,1-.28-.44V12.49a.47.47,0,0,1,.15-.35.46.46,0,0,1,.35-.14A12.47,12.47,0,0,1,36.05,29.26a.53.53,0,0,1-.28.27A.57.57,0,0,1,35.59,29.56Zm-10.2-6.1,9.94,4.93A11.49,11.49,0,0,0,25.4,13Z"/><path class="cls-1" d="M24.11,37.32A12.45,12.45,0,0,1,12.75,19.67a.48.48,0,0,1,.28-.26.5.5,0,0,1,.38,0l21.5,10.66a.51.51,0,0,1,.25.29.5.5,0,0,1,0,.38A12.5,12.5,0,0,1,24.11,37.32ZM13.44,20.54a11.29,11.29,0,0,0-.84,4.31A11.52,11.52,0,0,0,34,30.74Z"/></svg>