<svg id="Capa_1" data-name="Capa 1" xmlns="http://www.w3.org/2000/svg" viewBox="0 0 48.64 47.97"><defs><style>.cls-1{fill:#ffd040;fill-rule:evenodd;}.cls-2{fill:#222d5b;}</style></defs><path class="cls-1" d="M.51,24.14a.44.44,0,0,0,.42-.42,22.45,22.45,0,0,1,.76-5.29s0,0,0-.06a23,23,0,0,1,1.39-3.8l.15-.29c.16-.33.32-.66.49-1,0,0,0,0,0-.05.29-.53.6-1,.94-1.54a.44.44,0,0,0-.12-.59.43.43,0,0,0-.59.12,22.82,22.82,0,0,0-1.37,2.4c-.1.19-.2.38-.28.57s-.12.22-.17.34a.61.61,0,0,0,0,.11A25.1,25.1,0,0,0,.94,18a.31.31,0,0,0,0,.1,24,24,0,0,0-.81,5.6.43.43,0,0,0,.42.44Z"/><path class="cls-1" d="M40.87,9.19l0,0a23.23,23.23,0,0,1,2.26,3.06c.26.43.51.85.74,1.29a.56.56,0,0,0,.05.08h0c.29.54.55,1.1.79,1.66a.45.45,0,0,0,.39.26.47.47,0,0,0,.17,0,.43.43,0,0,0,.22-.56c-.25-.59-.52-1.16-.82-1.73h0c-.27-.51-.57-1-.87-1.51,0,0,0-.07-.07-.1l0,0a22.89,22.89,0,0,0-2.25-3s0,0,0,0a23.42,23.42,0,0,0-4.17-3.72.42.42,0,1,0-.48.69A23,23,0,0,1,40.87,9.19Z"/><path class="cls-1" d="M11.16,43.32a22.92,22.92,0,0,1-4.29-3.68c-.3-.34-.6-.68-.88-1l-.19-.24c-.28-.36-.55-.72-.81-1.09L4.81,37q-.37-.55-.72-1.14l-.15-.27c-.23-.4-.45-.8-.65-1.21a2,2,0,0,0-.1-.21,22.74,22.74,0,0,1-2-6.18.42.42,0,0,0-.48-.35.44.44,0,0,0-.36.49,24.23,24.23,0,0,0,1.54,5.3s0,.06,0,.09c.15.36.33.71.5,1.06a1.11,1.11,0,0,0,.07.16c.23.46.47.91.73,1.35l.09.17c.26.43.52.85.8,1.26l.14.22c.27.37.54.74.82,1.1l.25.32q.36.44.75.87c.1.12.2.25.32.37s0,0,0,0A24.21,24.21,0,0,0,10.69,44a.48.48,0,0,0,.24.06.41.41,0,0,0,.35-.19A.43.43,0,0,0,11.16,43.32Z"/><path class="cls-1" d="M35.87,43.63A23.12,23.12,0,0,1,30.94,46h0a23.78,23.78,0,0,1-3.52.86h0a23.08,23.08,0,0,1-3.63.29.42.42,0,0,0-.43.42.42.42,0,0,0,.43.42c.6,0,1.2,0,1.8-.07h.13c.61,0,1.21-.14,1.82-.23h0a23.88,23.88,0,0,0,3.71-.9l.06,0a23.68,23.68,0,0,0,5-2.37.44.44,0,0,0,.13-.59A.42.42,0,0,0,35.87,43.63Z"/><path class="cls-1" d="M20,1.76l1-.14.23,0L22,1.53l.49,0,.51,0h.92c.64,0,1.28,0,1.91.09l.21,0c.57.06,1.15.14,1.71.24s.95.18,1.43.29a23.28,23.28,0,0,1,4,1.35.43.43,0,0,0,.57-.22.43.43,0,0,0-.23-.56,23.73,23.73,0,0,0-4.09-1.39q-.61-.15-1.23-.27h-.05c-.12,0-.25,0-.37-.05C27.16.86,26.63.78,26.1.73l-.24,0C25.22.64,24.57.62,23.92.61H23l-.63,0-.45,0-.8.07-.23,0-1,.14h0a23.32,23.32,0,0,0-5.4,1.56.43.43,0,0,0-.22.56.41.41,0,0,0,.39.25.45.45,0,0,0,.16,0A22.33,22.33,0,0,1,20,1.76Z"/><path class="cls-1" d="M5.31,10.41a.44.44,0,0,0,.44-.15A22.19,22.19,0,0,1,8.2,7.58a.43.43,0,0,0,0-.6.42.42,0,0,0-.6,0A23.09,23.09,0,0,0,5.08,9.74a.43.43,0,0,0,.06.6A.61.61,0,0,0,5.31,10.41Z"/><path class="cls-1" d="M46.4,31.2c0-.11.05-.21.08-.31.1-.34.21-.68.29-1,0,0,0-.06,0-.09a24.05,24.05,0,0,0,.65-5.5.43.43,0,0,0-.42-.42.42.42,0,0,0-.43.42,22.93,22.93,0,0,1-.9,6.35l-.09.32q-.21.68-.45,1.32l-.09.23c-.18.49-.39,1-.61,1.43l0,.06a23.7,23.7,0,0,1-1.64,2.9,0,0,0,0,1,0,0A23,23,0,0,1,39.29,41a.41.41,0,0,0,0,.59.35.35,0,0,0,.21.12.39.39,0,0,0,.39-.09,23.65,23.65,0,0,0,6-8.85l.06-.19C46.09,32.14,46.25,31.67,46.4,31.2Z"/><path class="cls-1" d="M45.4,17a22.77,22.77,0,0,1,.88,3.53.44.44,0,0,0,.32.35.49.49,0,0,0,.17,0,.43.43,0,0,0,.35-.49,23.07,23.07,0,0,0-.92-3.66.43.43,0,0,0-.54-.27A.41.41,0,0,0,45.4,17Z"/><path class="cls-1" d="M22,47.05a22.3,22.3,0,0,1-3.6-.58.43.43,0,0,0-.51.32.42.42,0,0,0,.31.51,23.75,23.75,0,0,0,3.73.6.43.43,0,0,0,.45-.4A.42.42,0,0,0,22,47.05Z"/><path class="cls-2" d="M16.78,19.72H28.6a.54.54,0,1,0,0-1.07H16.78a.53.53,0,0,0-.53.53A.52.52,0,0,0,16.78,19.72Z"/><path class="cls-2" d="M31,27.27V36a.92.92,0,0,1-.92.92H15.27a.92.92,0,0,1-.92-.92V17H17a1.43,1.43,0,0,0,1.43-1.43V12.89H30.11a.92.92,0,0,1,.92.92v4l1.06-1.07V13.81a2,2,0,0,0-2-2H18a.73.73,0,0,0-.52.22l-4,4a.76.76,0,0,0-.21.52V36a2,2,0,0,0,2,2H30.1a2,2,0,0,0,2-2v-9.8ZM17.37,13.63v1.89a.37.37,0,0,1-.37.37H15.11Z"/><path class="cls-2" d="M16.24,31.74a.54.54,0,0,0,.54.54h1.35l.3-1.07H16.78A.54.54,0,0,0,16.24,31.74Z"/><path class="cls-2" d="M16.24,25.47a.54.54,0,0,0,.54.53h6.07l1.06-1.06H16.78A.52.52,0,0,0,16.24,25.47Z"/><polygon class="cls-2" points="22.45 34.14 23.2 33.94 19.7 30.45 19.23 32.23 19.23 32.23 19.23 32.23 19.02 32.99 19.03 33 18.43 35.39 22.45 34.14"/><path class="cls-2" d="M36.49,20l-2.83-2.83a.47.47,0,0,0-.66,0L20.35,29.8l.71.75,12.16-12,2,1.89L23.09,32.54l.76.75L36.49,20.65A.47.47,0,0,0,36.49,20Z"/></svg>