<svg id="Capa_1" data-name="Capa 1" xmlns="http://www.w3.org/2000/svg" viewBox="0 0 48.64 47.97"><defs><style>.cls-1{fill:#222d5b;}</style></defs><path class="cls-1" d="M24.19.34A23.44,23.44,0,1,0,47.62,23.78,23.44,23.44,0,0,0,24.19.34Zm0,45.8A22.37,22.37,0,1,1,46.55,23.78,22.4,22.4,0,0,1,24.18,46.14Z"/><path class="cls-1" d="M30.1,17.53H18.27a.53.53,0,0,0-.53.53.53.53,0,0,0,.53.53H30.1a.53.53,0,1,0,0-1.06Z"/><path class="cls-1" d="M31.6,10.69H19.47a.73.73,0,0,0-.52.21l-3.95,4a.71.71,0,0,0-.22.52V34.87a2,2,0,0,0,2,2H31.6a2,2,0,0,0,2-2V12.68A2,2,0,0,0,31.6,10.69ZM18.86,12.5v1.89a.37.37,0,0,1-.37.37H16.6ZM32.52,34.87a.92.92,0,0,1-.92.92H16.76a.92.92,0,0,1-.92-.92v-19h2.64a1.44,1.44,0,0,0,1.44-1.43V11.75H31.6a.92.92,0,0,1,.92.92Z"/><path class="cls-1" d="M27.27,30.08h-9a.53.53,0,1,0,0,1.06h9a.53.53,0,0,0,0-1.06Z"/><path class="cls-1" d="M30.1,23.8H18.27a.54.54,0,0,0,0,1.07H30.1a.54.54,0,0,0,0-1.07Z"/></svg>