<svg id="Capa_1" data-name="Capa 1" xmlns="http://www.w3.org/2000/svg" viewBox="0 0 48.64 47.97"><defs><style>.cls-1{fill:#222d5b;}.cls-2{fill:#fff;}</style></defs><path class="cls-1" d="M24.31,47.42A23.44,23.44,0,1,1,47.75,24,23.46,23.46,0,0,1,24.31,47.42Zm0-45.89A22.46,22.46,0,1,0,46.77,24,22.49,22.49,0,0,0,24.32,1.53Z"/><path class="cls-1" d="M11.42,35.65a1.74,1.74,0,0,1-1.65-.77,1.61,1.61,0,0,1,.16-1.65l3-5.31a.2.2,0,0,0,0-.11V15.34A1.3,1.3,0,0,1,14.26,14H34.49a1.3,1.3,0,0,1,1.3,1.29V27.82a.26.26,0,0,0,0,.11l3.31,5.84a1.26,1.26,0,0,1,0,1.22,1.36,1.36,0,0,1-1.28.66ZM27.23,32.3a.83.83,0,0,1,.66.42l.84,1.73a.21.21,0,0,0,.2.13h8.42a.54.54,0,0,0,.51-.86l-2.24-4a1.38,1.38,0,0,0-1.11-.64H14.23a1.33,1.33,0,0,0-1.1.64l-2.25,4a.59.59,0,0,0,0,.6.6.6,0,0,0,.54.27h8.66a.23.23,0,0,0,.2-.13l.83-1.73a.85.85,0,0,1,.67-.42ZM33.88,28h.2a.79.79,0,0,0,.55-.14c.11-.11.1-.3.09-.52V16a.84.84,0,0,0-.84-.83h-19A.85.85,0,0,0,14,16V27.38c0,.22,0,.39.09.49s.34.17.7.17H33.88Z"/><path class="cls-1" d="M11.42,35.55c-1.76,0-2-1.33-1.41-2.26L13,28a.29.29,0,0,0,0-.16V15.34a1.19,1.19,0,0,1,1.19-1.2H34.49a1.2,1.2,0,0,1,1.2,1.19V27.82a.33.33,0,0,0,0,.16L39,33.81a1.2,1.2,0,0,1-1.2,1.74ZM27.23,32.4a.72.72,0,0,1,.57.36l.83,1.74a.34.34,0,0,0,.3.18h8.42a.7.7,0,0,0,.63-.31.68.68,0,0,0,0-.7l-2.24-4a1.48,1.48,0,0,0-1.2-.7H14.23A1.45,1.45,0,0,0,13,29.7l-2.24,4a.65.65,0,0,0,.59,1h8.66a.31.31,0,0,0,.29-.19l.83-1.73a.73.73,0,0,1,.58-.36h5.48ZM14.87,15a.94.94,0,0,0-.94.94V27.2c0,.52-.16.95.94.94h19c1.1.07.94-.42.94-.93V16a.94.94,0,0,0-.94-.93Z"/><path class="cls-2" d="M26.79,33.44a.48.48,0,0,0-.35-.16H22.56a.35.35,0,0,0-.36.16s-.57,1-.59,1.14h5.77C27.35,34.45,26.79,33.44,26.79,33.44Z"/></svg>