<svg  width="72" height="72" id="Capa_1" data-name="Capa 1" xmlns="http://www.w3.org/2000/svg" viewBox="0 0 48.64 47.97"><defs><style>.cls-1{fill:#222d5b;}.cls-2{fill:none;stroke:#222d5b;stroke-miterlimit:10;stroke-width:0.99px;}.cls-3{fill:#232e5b;}</style></defs><path class="cls-1" d="M24.48,47.43A23.45,23.45,0,1,1,47.92,24,23.48,23.48,0,0,1,24.48,47.43Zm0-45.89A22.45,22.45,0,1,0,46.92,24,22.47,22.47,0,0,0,24.49,1.54Z"/><path class="cls-2" d="M35.24,23.81a27.17,27.17,0,0,0-1.56-8.55h2.25a.74.74,0,1,0,0-1.48H13a.74.74,0,0,0,0,1.48h2.25a27.17,27.17,0,0,0-1.56,8.55v1.48a27,27,0,0,0,1.56,8.55H13a.74.74,0,1,0,0,1.48h22.9a.74.74,0,0,0,0-1.48H33.68a27,27,0,0,0,1.56-8.55Z"/><path class="cls-3" d="M22.55,28.4a2.49,2.49,0,0,0,1.38.76V25.4l-.24-.08-.34-.08c-.44-.12-.88-.26-1.31-.42a4.39,4.39,0,0,1-1.16-.65,2.93,2.93,0,0,1-.81-1,3.21,3.21,0,0,1-.31-1.5,3.64,3.64,0,0,1,.35-1.62A3.47,3.47,0,0,1,21,18.88a4,4,0,0,1,1.33-.74,6.27,6.27,0,0,1,1.56-.32V16.44H25v1.38a6.74,6.74,0,0,1,1.52.35,4.34,4.34,0,0,1,1.24.72A3.56,3.56,0,0,1,28.63,20a4.2,4.2,0,0,1,.4,1.62H26.48A1.85,1.85,0,0,0,26,20.43a1.32,1.32,0,0,0-1-.5v3.18l.44.1.47.13a6.07,6.07,0,0,1,2.05.89A3.89,3.89,0,0,1,29,25.33a3,3,0,0,1,.41,1.15,10.19,10.19,0,0,1,.06,1,3.5,3.5,0,0,1-.91,2.17,4.85,4.85,0,0,1-1.37,1,5.6,5.6,0,0,1-2.21.54v1.53H23.93V31.24A4.81,4.81,0,0,1,20.79,30a4.85,4.85,0,0,1-1.32-3.21H22A2.12,2.12,0,0,0,22.55,28.4ZM23.34,20a1.66,1.66,0,0,0-.53.27,1.51,1.51,0,0,0-.36.47,1.49,1.49,0,0,0-.14.66,1.13,1.13,0,0,0,.38.91,2.84,2.84,0,0,0,1.24.52V19.93A1.92,1.92,0,0,0,23.34,20Zm2.32,9a1.81,1.81,0,0,0,.63-.33,1.68,1.68,0,0,0,.46-.53,1.45,1.45,0,0,0,.18-.74,1.26,1.26,0,0,0-.44-1,4.3,4.3,0,0,0-1.5-.64v3.45A3.6,3.6,0,0,0,25.66,29Z"/></svg>