<svg id="Capa_1" data-name="Capa 1" xmlns="http://www.w3.org/2000/svg" viewBox="0 0 48.64 47.97"><defs><style>.cls-1,.cls-3{fill:#222d5b;}.cls-2{fill:none;stroke:#222d5b;stroke-miterlimit:10;stroke-width:0.99px;}.cls-3{font-size:16px;font-family:MyriadPro-Regular, Myriad Pro;}</style></defs><path class="cls-1" d="M24.48,47.43A23.45,23.45,0,1,1,47.92,24,23.48,23.48,0,0,1,24.48,47.43Zm0-45.89A22.45,22.45,0,1,0,46.92,24,22.47,22.47,0,0,0,24.49,1.54Z"/><path class="cls-2" d="M35.24,23a27,27,0,0,0-1.56-8.54h2.25a.75.75,0,0,0,0-1.49H13a.75.75,0,0,0,0,1.49h2.25A27,27,0,0,0,13.72,23V24.5A27,27,0,0,0,15.28,33H13a.74.74,0,1,0,0,1.48h22.9a.74.74,0,0,0,0-1.48H33.68a27,27,0,0,0,1.56-8.54Z"/><text class="cls-3" transform="translate(20.5 29.14)">$</text></svg>