<svg width="72" height="72" id="Capa_1" data-name="Capa 1" xmlns="http://www.w3.org/2000/svg" viewBox="0 0 48.64 47.97"><defs><style>.cls-1{fill:#222d5b;}.cls-2{fill:#ffd040;fill-rule:evenodd;}</style></defs><polygon class="cls-1" points="20.14 33.17 19.71 34.77 21.31 34.34 20.14 33.17"/><polygon class="cls-1" points="24.48 33.49 20.99 30 20.31 32.54 21.93 34.17 24.48 33.49"/><path class="cls-1" d="M37.77,19.54,35,16.71a.48.48,0,0,0-.67,0L21.64,29.35l.61.61,12.4-12.4.62.62-12.4,12.4,1,1,12.4-12.4.62.63L24.5,32.21l.63.63L37.77,20.2A.45.45,0,0,0,37.77,19.54Z"/><path class="cls-1" d="M33.38,35a.62.62,0,0,1-.62.62H13.81a.62.62,0,0,1-.62-.62V16.18H16a1.9,1.9,0,0,0,1.89-1.9v-3H32.77a.62.62,0,0,1,.62.62v4.3l.16-.17a1.5,1.5,0,0,1,1.06-.44h0V11.85A1.88,1.88,0,0,0,32.77,10H17.44a2.09,2.09,0,0,0-1.44.69c-.68.68-2.78,2.87-3.43,3.57a2.33,2.33,0,0,0-.65,1.49V35a1.9,1.9,0,0,0,1.9,1.9H32.76A1.89,1.89,0,0,0,34.66,35V24.77l-1.28,1.28ZM16.65,11.42v2.86a.62.62,0,0,1-.62.62H13.3Z"/><path class="cls-1" d="M31.67,17.86a.85.85,0,0,0-.4-.1h-16a.63.63,0,1,0,0,1.25H30.52Z"/><path class="cls-1" d="M28.87,20.66H15.3a.63.63,0,1,0,0,1.25H27.62Z"/><path class="cls-1" d="M26,23.57H15.3a.63.63,0,1,0,0,1.26h9.41Z"/><path class="cls-1" d="M22.9,26.63H15.3a.63.63,0,1,0,0,1.26h6.35Z"/><path class="cls-1" d="M14.6,30.29a.66.66,0,0,0,.7.63h4.38L20,29.67H15.3A.66.66,0,0,0,14.6,30.29Z"/><path class="cls-2" d="M1.07,23.87a.43.43,0,0,0,.42-.42,22.6,22.6,0,0,1,.76-5.3l0,0a22.15,22.15,0,0,1,1.39-3.8c0-.1.09-.2.14-.3.16-.32.32-.65.5-1a.09.09,0,0,0,0,0c.29-.53.61-1.05.94-1.54a.44.44,0,0,0-.12-.59.41.41,0,0,0-.59.12,24.75,24.75,0,0,0-1.37,2.4l-.28.57a3.59,3.59,0,0,0-.17.34.35.35,0,0,0,0,.11,24.6,24.6,0,0,0-1.2,3.34.31.31,0,0,0-.05.1,25.15,25.15,0,0,0-.81,5.6.44.44,0,0,0,.42.44Z"/><path class="cls-2" d="M41.44,8.92l0,0A24.08,24.08,0,0,1,43.73,12c.26.42.51.85.74,1.29a.35.35,0,0,1,.05.08h0c.29.55.56,1.11.79,1.67a.45.45,0,0,0,.39.26.86.86,0,0,0,.17,0,.44.44,0,0,0,.22-.56c-.25-.59-.52-1.17-.82-1.73h0c-.27-.52-.56-1-.87-1.51l-.06-.1,0,0a23.68,23.68,0,0,0-2.25-3l0,0a24.14,24.14,0,0,0-4.17-3.72.44.44,0,0,0-.6.1.43.43,0,0,0,.11.59A23.09,23.09,0,0,1,41.44,8.92Z"/><path class="cls-2" d="M11.72,43.05a22.91,22.91,0,0,1-4.28-3.68c-.31-.34-.61-.68-.89-1l-.18-.24c-.29-.36-.56-.72-.82-1.1l-.18-.26c-.25-.38-.49-.75-.72-1.14l-.15-.28c-.23-.39-.45-.79-.65-1.2a2,2,0,0,0-.1-.21,23.09,23.09,0,0,1-2-6.18.41.41,0,0,0-.48-.35.42.42,0,0,0-.35.49,23.44,23.44,0,0,0,1.53,5.29s0,.07,0,.1c.15.36.33.71.5,1.06l.07.16c.23.46.47.91.73,1.35a1,1,0,0,0,.1.17c.25.43.52.85.79,1.26l.15.21c.26.38.53.75.82,1.11l.24.32q.36.43.75.87l.32.37H7a23.67,23.67,0,0,0,4.24,3.61.43.43,0,0,0,.59-.12A.43.43,0,0,0,11.72,43.05Z"/><path class="cls-2" d="M36.43,43.36a23,23,0,0,1-4.92,2.32h0a23.65,23.65,0,0,1-3.51.86h0a22,22,0,0,1-3.63.29.42.42,0,0,0-.42.43.42.42,0,0,0,.42.42c.6,0,1.2,0,1.8-.07h.13c.61,0,1.22-.13,1.82-.22h0a23.6,23.6,0,0,0,3.71-.9l.06,0a23.65,23.65,0,0,0,5-2.36.43.43,0,0,0,.13-.59A.42.42,0,0,0,36.43,43.36Z"/><path class="cls-2" d="M20.59,1.49c.32-.06.65-.1,1-.14l.23,0,.73-.06.49,0,.52,0h.66a2.26,2.26,0,0,1,.26,0c.63,0,1.27,0,1.9.09l.21,0q.87.09,1.71.24c.48.08,1,.18,1.43.29a22.44,22.44,0,0,1,3.95,1.35A.43.43,0,1,0,34,2.4,24.13,24.13,0,0,0,29.9,1L28.67.74l-.05,0-.37,0q-.8-.14-1.59-.21l-.23,0c-.65-.06-1.3-.08-1.95-.09h-.91c-.21,0-.42,0-.63,0l-.45,0L21.7.48l-.24,0-1,.14h0A23.93,23.93,0,0,0,15,2.22a.43.43,0,0,0-.22.56.41.41,0,0,0,.39.25l.17,0a22.19,22.19,0,0,1,5.21-1.51Z"/><path class="cls-2" d="M5.87,10.14A.44.44,0,0,0,6.31,10,22.27,22.27,0,0,1,8.77,7.31a.43.43,0,0,0,0-.6.42.42,0,0,0-.6,0A23.94,23.94,0,0,0,5.64,9.47a.41.41,0,0,0,.07.59A.48.48,0,0,0,5.87,10.14Z"/><path class="cls-2" d="M47,30.92l.09-.3c.1-.34.2-.68.28-1a.28.28,0,0,0,0-.09A24.05,24.05,0,0,0,48,24a.43.43,0,0,0-.85,0,22.93,22.93,0,0,1-.9,6.35l-.09.32q-.21.67-.45,1.32l-.09.23c-.18.48-.38,1-.6,1.43l0,.06a22.45,22.45,0,0,1-1.64,2.9,0,0,0,0,1,0,0,23,23,0,0,1-3.48,4.11.41.41,0,0,0,0,.59.35.35,0,0,0,.2.12.39.39,0,0,0,.39-.09,23.45,23.45,0,0,0,6-8.86,1.34,1.34,0,0,1,.07-.18C46.65,31.87,46.82,31.4,47,30.92Z"/><path class="cls-2" d="M46,16.72a21.69,21.69,0,0,1,.88,3.53.44.44,0,0,0,.32.35h.17a.44.44,0,0,0,.35-.5,23.34,23.34,0,0,0-.92-3.66.45.45,0,0,0-.54-.27A.42.42,0,0,0,46,16.72Z"/><path class="cls-2" d="M22.57,46.78A22.3,22.3,0,0,1,19,46.2a.43.43,0,0,0-.51.31.42.42,0,0,0,.31.52,26.33,26.33,0,0,0,3.73.6.44.44,0,0,0,.46-.4A.42.42,0,0,0,22.57,46.78Z"/></svg>