<svg id="Capa_1" data-name="Capa 1" xmlns="http://www.w3.org/2000/svg" viewBox="0 0 48.64 47.97"><defs><style>.cls-1{fill:#222d5b;}.cls-2{fill:none;stroke:#222d5b;stroke-miterlimit:10;stroke-width:0.99px;}</style></defs><path class="cls-1" d="M24.48,47.43A23.45,23.45,0,1,1,47.92,24,23.48,23.48,0,0,1,24.48,47.43Zm0-45.89A22.45,22.45,0,1,0,46.92,24,22.47,22.47,0,0,0,24.49,1.54Z"/><path class="cls-2" d="M35.24,23a27,27,0,0,0-1.56-8.54h2.25a.75.75,0,0,0,0-1.49H13a.75.75,0,0,0,0,1.49h2.25A27,27,0,0,0,13.72,23V24.5A27,27,0,0,0,15.28,33H13a.74.74,0,1,0,0,1.48h22.9a.74.74,0,0,0,0-1.48H33.68a27,27,0,0,0,1.56-8.54Z"/><path class="cls-1" d="M24,30.51V28.9a4.69,4.69,0,0,1-2.44-.71l.38-1.07a4.32,4.32,0,0,0,2.31.69,1.68,1.68,0,0,0,1.9-1.57c0-.88-.62-1.43-1.81-1.91-1.63-.64-2.64-1.37-2.64-2.77A2.62,2.62,0,0,1,24.1,19V17.37h1v1.55a4.37,4.37,0,0,1,2.08.56l-.4,1.06a3.91,3.91,0,0,0-2-.54c-1.23,0-1.69.73-1.69,1.37,0,.84.59,1.25,2,1.83,1.65.67,2.48,1.5,2.48,2.93A2.78,2.78,0,0,1,25,28.85v1.66Z"/></svg>