<svg id="Capa_1" data-name="Capa 1" xmlns="http://www.w3.org/2000/svg" viewBox="0 0 48.64 47.97"><defs><style>.cls-1{fill:#222d5b;}</style></defs><path class="cls-1" d="M24.32.55A23.44,23.44,0,1,0,47.75,24,23.44,23.44,0,0,0,24.32.55Zm0,45.8A22.37,22.37,0,1,1,46.69,24,22.39,22.39,0,0,1,24.31,46.35Z"/><path class="cls-1" d="M33.43,16.52H15.21A2.45,2.45,0,0,0,12.77,19V29a2.43,2.43,0,0,0,2.44,2.43H33.43A2.43,2.43,0,0,0,35.86,29V19A2.43,2.43,0,0,0,33.43,16.52ZM15.21,17.58H33.43A1.38,1.38,0,0,1,34.8,19v.1h-21V19A1.37,1.37,0,0,1,15.21,17.58ZM34.8,20.11v2.24h-21V20.11ZM33.43,30.39H15.21A1.37,1.37,0,0,1,13.84,29V23.41h21V29A1.37,1.37,0,0,1,33.43,30.39Z"/><path class="cls-1" d="M20.77,12.7h5.8l-1.1,1.05a.54.54,0,0,0,0,.76.51.51,0,0,0,.38.16.53.53,0,0,0,.37-.15l2-1.93a.58.58,0,0,0,0-.84l-2-1.93a.53.53,0,0,0-.74.77l1.1,1.05h-5.8a.53.53,0,1,0,0,1.06Z"/><path class="cls-1" d="M27.87,35.27h-5.8l1.09-1.06a.53.53,0,1,0-.73-.76l-2,1.93a.6.6,0,0,0-.18.42.62.62,0,0,0,.18.42l2,1.93a.51.51,0,0,0,.36.15.56.56,0,0,0,.39-.17.53.53,0,0,0,0-.75l-1.09-1.05h5.79a.53.53,0,1,0,0-1.06Z"/></svg>